<?xml version="1.0" encoding="UTF-8"?>
<svg width="71px" height="64px" viewBox="0 0 71 64" version="1.1" xmlns="http://www.w3.org/2000/svg" xmlns:xlink="http://www.w3.org/1999/xlink">
    <!-- Generator: Sketch 48.1 (47250) - http://www.bohemiancoding.com/sketch -->
    <title>Shape Copy 2</title>
    <desc>Created with Sketch.</desc>
    <defs></defs>
    <g id="Page-1" stroke="none" stroke-width="1" fill="#ffffff" fill-rule="evenodd">
        <path d="M7.88406117,22.299076 C3.85908033,22.299076 0,17.5404828 0,11.6351067 C0,5.72973059 6.33296794,1.57312829 11.2720377,1.57312829 C16.2111075,1.57312829 22.3172213,5.49468311 22.3172213,11.6351067 C22.3172213,17.7755303 19.0393448,22.299076 14.5895742,22.299076 L14.5895742,42.6890278 C14.5895742,44.5086769 16.1588747,48.8153555 19.2351566,48.8153555 L25.7312654,48.8153555 L25.7312654,39.8575633 C25.7312654,39.3789027 25.8680256,38.9686221 26.209926,38.6267217 C26.8253469,37.9429208 27.9194283,37.9429208 28.6032293,38.6267217 C35.030958,45.0544504 38.2448224,48.2683148 38.2448224,48.2683148 C38.3813539,48.3911932 38.3872382,48.7767366 38.5726351,49.0207746 C39.8029109,50.6401876 39.9631938,51.4666944 38.2448224,53.8797463 L28.6032293,63.5213394 C28.2613288,63.7948597 27.8510483,64 27.3723876,64 C26.4150663,64 25.6628853,63.247819 25.6628853,62.2904977 L25.6628853,55.4524884 L19.1667765,55.4524884 C12.944188,55.4524884 7.88406117,50.3923615 7.88406117,44.1697731 L7.88406117,22.299076 Z M62.5694946,41.700924 C66.5944754,41.700924 70.4535557,46.4595172 70.4535557,52.3648933 C70.4535557,58.2702694 64.1205878,62.4268717 59.181518,62.4268717 C54.2424483,62.4268717 48.1363344,58.5053169 48.1363344,52.3648933 C48.1363344,46.2244697 51.414211,41.700924 55.8639816,41.700924 L55.8639816,21.3109722 C55.8639816,19.4913231 54.294681,15.1846445 51.2183992,15.1846445 L44.7222904,15.1846445 L44.7222904,24.1424367 C44.7222904,24.6210973 44.5855302,25.0313779 44.2436297,25.3732783 C43.6282089,26.0570792 42.5341274,26.0570792 41.8503265,25.3732783 C35.4225977,18.9455496 32.2087334,15.7316852 32.2087334,15.7316852 C32.0722018,15.6088068 32.0663175,15.2232634 31.8809207,14.9792254 C30.6506448,13.3598124 30.4903619,12.5333056 32.2087334,10.1202537 L41.8503265,0.478660649 C42.1922269,0.205140278 42.6025075,2.12424673e-15 43.0811681,2.0656277e-15 C44.0384894,1.94838966e-15 44.7906704,0.75218102 44.7906704,1.70950232 L44.7906704,8.5475116 L51.2867793,8.5475116 C57.5093677,8.5475116 62.5694946,13.6076385 62.5694946,19.8302269 L62.5694946,41.700924 Z" id="Shape-Copy-2" fill="#ffffff" fill-rule="nonzero"></path>
    </g>
</svg>