<?xml version="1.0" encoding="UTF-8"?>
<svg width="40px" height="41px" viewBox="0 0 40 41" version="1.1" xmlns="http://www.w3.org/2000/svg" xmlns:xlink="http://www.w3.org/1999/xlink">
    <!-- Generator: Sketch 44.1 (41455) - http://www.bohemiancoding.com/sketch -->
    <title>ws_icon</title>
    <desc>Created with Sketch.</desc>
    <defs></defs>
    <g id="Page-1" stroke="none" stroke-width="1" fill="none" fill-rule="evenodd">
        <path d="M38.0008027,0 L2.00134371,0 C0.896653589,0 0,0.896653589 0,2.00134371 L0,38.0029529 C0,39.1054928 0.898803837,40.0021464 1.99919346,40.0021464 L38.0008027,40.0021464 C39.1033426,40.0021464 39.9999961,39.1033426 39.9999961,38.0029529 L39.9999961,2.00134371 C40.0021464,0.896653589 39.1054928,0 38.0008027,0 Z M34.0029533,3.99999961 C35.1054932,3.99999961 36.0021468,4.89880345 36.0021468,5.99919308 C36.0021468,7.10173295 35.1033429,7.99838654 34.0029533,7.99838654 C32.9004134,7.99838654 32.0037598,7.0995827 32.0037598,5.99919308 C32.0016096,4.89880345 32.8982632,3.99999961 34.0029533,3.99999961 Z M26.0024165,3.99999961 C27.1049564,3.99999961 28.00161,4.89880345 28.00161,5.99919308 C28.00161,7.10173295 27.1028061,7.99838654 26.0024165,7.99838654 C24.8998766,7.99838654 24.0032231,7.0995827 24.0032231,5.99919308 C24.0010728,4.89880345 24.8977264,3.99999961 26.0024165,3.99999961 Z M18.0018797,3.99999961 C19.1044196,3.99999961 20.0010732,4.89880345 20.0010732,5.99919308 C20.0010732,7.10173295 19.1022694,7.99838654 18.0018797,7.99838654 C16.8993399,7.99838654 16.0026863,7.0995827 16.0026863,5.99919308 C16.0010736,4.89880345 16.8977272,3.99999961 18.0018797,3.99999961 Z M36.0021468,36.0021468 L3.99999961,36.0021468 L3.99999961,12.0005364 L36.0021468,12.0005364 L36.0021468,36.0021468 Z M8.8047297,32.0016096 L15.1963431,32.0016096 C15.6376816,32.0016096 15.9989233,31.6468186 15.9989233,31.1995669 L15.9989233,16.8052665 C15.9989233,16.363928 15.6441323,16.0026863 15.1963431,16.0026863 L8.79397846,16.0026863 C8.35317753,16.0026863 7.9919358,16.3580148 7.9919358,16.8052665 L7.9919358,31.2081679 C8.00053679,31.6468186 8.35532778,32.0016096 8.8047297,32.0016096 Z M20.8031159,24.0010728 L31.2060177,24.0010728 C31.6468186,24.0010728 32.0080603,23.6462818 32.0080603,23.1990301 L32.0080603,16.7966655 C32.0080603,16.3558646 31.6532694,15.9946228 31.2060177,15.9946228 L20.8031159,15.9946228 C20.3623149,15.9946228 20.0010732,16.3494138 20.0010732,16.7966655 L20.0010732,23.1990301 C20.0010732,23.6462818 20.3558642,24.0010728 20.8031159,24.0010728 Z M20.8031159,32.0016096 L31.2060177,32.0016096 C31.6468186,32.0016096 32.0080603,31.6468186 32.0080603,31.1995669 L32.0080603,28.7972019 C32.0080603,28.356401 31.6532694,27.9951592 31.2060177,27.9951592 L20.8031159,27.9951592 C20.3623149,27.9951592 20.0010732,28.3499502 20.0010732,28.7972019 L20.0010732,31.1995669 C20.0010732,31.6468186 20.3558642,32.0016096 20.8031159,32.0016096 Z" id="Icon" fill="#FFFFFF"></path>
    </g>
</svg>
